<?xml version="1.0" encoding="UTF-8" standalone="no"?>
<!-- Created with Inkscape (http://www.inkscape.org/) -->

<svg
   width="400"
   height="400"
   viewBox="0 0 400 400"
   version="1.1"
   id="svg1"
   xml:space="preserve"
   xmlns="http://www.w3.org/2000/svg"
   xmlns:svg="http://www.w3.org/2000/svg"><defs
     id="defs1" /><g
     id="layer1"><rect
       style="fill:#1e1c2b;fill-opacity:1;stroke-width:1.21275"
       id="rect135"
       width="400"
       height="400"
       x="0"
       y="0" /><text
       xml:space="preserve"
       style="font-size:23.0706px;line-height:1;font-family:'Fusion Pixel 12px Monospaced ja';-inkscape-font-specification:'Fusion Pixel 12px Monospaced ja';fill:#000000;stroke-width:1.44191"
       x="19.740387"
       y="51.789501"
       id="text1"><tspan
         id="tspan1"
         x="19.740387"
         y="51.789501"
         style="font-size:23.0706px;line-height:1;fill:#ffffff;fill-opacity:1;stroke-width:1.44191"><tspan
   style="fill:#6673ef;fill-opacity:1;stroke-width:1.44191"
   id="tspan4">#</tspan> <tspan
   style="fill:#39a1b5;fill-opacity:1;stroke-width:1.44191"
   id="tspan6">diredocks</tspan> @ <tspan
   style="fill:#40bc5f;fill-opacity:1;stroke-width:1.44191"
   id="tspan7">github</tspan> in <tspan
   style="fill:#d3e81a;fill-opacity:1;stroke-width:1.44191"
   id="tspan8">~</tspan></tspan><tspan
         x="19.740387"
         y="74.8601"
         style="font-size:23.0706px;line-height:1;fill:#ffffff;fill-opacity:1;stroke-width:1.44191"
         id="tspan3"><tspan
   style="fill:#cc3bac;fill-opacity:1;stroke-width:1.44191"
   id="tspan9">$</tspan> cat ./readme</tspan><tspan
         x="19.740387"
         y="97.930702"
         style="font-size:23.0706px;line-height:1;fill:#ffffff;fill-opacity:1;stroke-width:1.44191"
         id="tspan10" /><tspan
         x="19.740387"
         y="121.0013"
         style="font-size:23.0706px;line-height:1;fill:#ffffff;fill-opacity:1;stroke-width:1.44191"
         id="tspan11">  Hi, it's Diredocks here!</tspan><tspan
         x="19.740387"
         y="144.0719"
         style="font-size:23.0706px;line-height:1;fill:#ffffff;fill-opacity:1;stroke-width:1.44191"
         id="tspan12">  I'm a indie developer who</tspan><tspan
         x="19.740387"
         y="167.1425"
         style="font-size:23.0706px;line-height:1;fill:#ffffff;fill-opacity:1;stroke-width:1.44191"
         id="tspan13">  interested in <tspan
   style="fill:#dce514;fill-opacity:1;stroke-width:1.44191"
   id="tspan36">Linux Desktop</tspan></tspan><tspan
         x="19.740387"
         y="190.2131"
         style="font-size:23.0706px;line-height:1;fill:#ffffff;fill-opacity:1;stroke-width:1.44191"
         id="tspan14">  and other cool stuff...</tspan></text><text
       xml:space="preserve"
       style="font-size:23.0706px;line-height:0.9;font-family:'Fusion Pixel 12px Monospaced ja';-inkscape-font-specification:'Fusion Pixel 12px Monospaced ja';fill:#ffffff;fill-opacity:1;stroke-width:1.44191"
       x="83.868019"
       y="331.38254"
       id="text15"><tspan
         style="font-size:17.3029px;line-height:0.9;fill:#b5b5b5;fill-opacity:1;stroke-width:1.44191"
         id="tspan26"
         x="83.868019"
         y="331.38254">Now Playing...</tspan><tspan
         x="83.868019"
         y="352.14609"
         id="tspan16"
         style="font-size:19.2254px;line-height:0.9;stroke-width:1.44191"><tspan
   style="fill:#ec529f;fill-opacity:1;stroke-width:1.44191"
   id="tspan34">桜吹雪クライマックス</tspan> - 岡本舞子</tspan></text><g
       style="shape-rendering:crispEdges"
       id="g28"
       transform="matrix(0.64257501,0,0,0.64257501,37.918,319.6067)"><rect
         x="32"
         y="0"
         width="4"
         height="4"
         fill="#ffffff"
         id="rect1-6" /><rect
         x="36"
         y="0"
         width="4"
         height="4"
         fill="#ffffff"
         id="rect2-3" /><rect
         x="40"
         y="0"
         width="4"
         height="4"
         fill="#ffffff"
         id="rect3-1" /><rect
         x="24"
         y="4"
         width="4"
         height="4"
         fill="#ffffff"
         id="rect4-7" /><rect
         x="28"
         y="4"
         width="4"
         height="4"
         fill="#ffffff"
         id="rect5-5" /><rect
         x="32"
         y="4"
         width="4"
         height="4"
         fill="#ffffff"
         id="rect6-9" /><rect
         x="36"
         y="4"
         width="4"
         height="4"
         fill="#ffffff"
         id="rect7-6" /><rect
         x="40"
         y="4"
         width="4"
         height="4"
         fill="#ffffff"
         id="rect8-2" /><rect
         x="44"
         y="4"
         width="4"
         height="4"
         fill="#ffffff"
         id="rect9-1" /><rect
         x="16"
         y="8"
         width="4"
         height="4"
         fill="#ffffff"
         id="rect10-7" /><rect
         x="20"
         y="8"
         width="4"
         height="4"
         fill="#ffffff"
         id="rect11-8" /><rect
         x="24"
         y="8"
         width="4"
         height="4"
         fill="#ffffff"
         id="rect12-5" /><rect
         x="28"
         y="8"
         width="4"
         height="4"
         fill="#ffffff"
         id="rect13-7" /><rect
         x="32"
         y="8"
         width="4"
         height="4"
         fill="#ffffff"
         id="rect14-4" /><rect
         x="36"
         y="8"
         width="4"
         height="4"
         fill="#ffffff"
         id="rect15-1" /><rect
         x="40"
         y="8"
         width="4"
         height="4"
         fill="#ffffff"
         id="rect16-8" /><rect
         x="44"
         y="8"
         width="4"
         height="4"
         fill="#ffffff"
         id="rect17-5" /><rect
         x="12"
         y="12"
         width="4"
         height="4"
         fill="#ffffff"
         id="rect18-9" /><rect
         x="16"
         y="12"
         width="4"
         height="4"
         fill="#ffffff"
         id="rect19-7" /><rect
         x="20"
         y="12"
         width="4"
         height="4"
         fill="#ffffff"
         id="rect20-5" /><rect
         x="24"
         y="12"
         width="4"
         height="4"
         fill="#ffffff"
         id="rect21-3" /><rect
         x="28"
         y="12"
         width="4"
         height="4"
         fill="#ffffff"
         id="rect22-8" /><rect
         x="44"
         y="12"
         width="4"
         height="4"
         fill="#ffffff"
         id="rect23-8" /><rect
         x="12"
         y="16"
         width="4"
         height="4"
         fill="#ffffff"
         id="rect24-3" /><rect
         x="16"
         y="16"
         width="4"
         height="4"
         fill="#ffffff"
         id="rect25-1" /><rect
         x="20"
         y="16"
         width="4"
         height="4"
         fill="#ffffff"
         id="rect26-8" /><rect
         x="44"
         y="16"
         width="4"
         height="4"
         fill="#ffffff"
         id="rect27-9" /><rect
         x="12"
         y="20"
         width="4"
         height="4"
         fill="#ffffff"
         id="rect28-6" /><rect
         x="44"
         y="20"
         width="4"
         height="4"
         fill="#ffffff"
         id="rect29-4" /><rect
         x="12"
         y="24"
         width="4"
         height="4"
         fill="#ffffff"
         id="rect30-3" /><rect
         x="44"
         y="24"
         width="4"
         height="4"
         fill="#ffffff"
         id="rect31" /><rect
         x="12"
         y="28"
         width="4"
         height="4"
         fill="#ffffff"
         id="rect32" /><rect
         x="44"
         y="28"
         width="4"
         height="4"
         fill="#ffffff"
         id="rect33" /><rect
         x="12"
         y="32"
         width="4"
         height="4"
         fill="#ffffff"
         id="rect34" /><rect
         x="36"
         y="32"
         width="4"
         height="4"
         fill="#ffffff"
         id="rect35" /><rect
         x="40"
         y="32"
         width="4"
         height="4"
         fill="#ffffff"
         id="rect36" /><rect
         x="44"
         y="32"
         width="4"
         height="4"
         fill="#ffffff"
         id="rect37" /><rect
         x="12"
         y="36"
         width="4"
         height="4"
         fill="#ffffff"
         id="rect38" /><rect
         x="32"
         y="36"
         width="4"
         height="4"
         fill="#c0cbdc"
         id="rect39" /><rect
         x="36"
         y="36"
         width="4"
         height="4"
         fill="#ffffff"
         id="rect40" /><rect
         x="40"
         y="36"
         width="4"
         height="4"
         fill="#ffffff"
         id="rect41" /><rect
         x="44"
         y="36"
         width="4"
         height="4"
         fill="#ffffff"
         id="rect42" /><rect
         x="4"
         y="40"
         width="4"
         height="4"
         fill="#ffffff"
         id="rect43" /><rect
         x="8"
         y="40"
         width="4"
         height="4"
         fill="#ffffff"
         id="rect44" /><rect
         x="12"
         y="40"
         width="4"
         height="4"
         fill="#ffffff"
         id="rect45" /><rect
         x="32"
         y="40"
         width="4"
         height="4"
         fill="#c0cbdc"
         id="rect46" /><rect
         x="36"
         y="40"
         width="4"
         height="4"
         fill="#ffffff"
         id="rect47" /><rect
         x="40"
         y="40"
         width="4"
         height="4"
         fill="#ffffff"
         id="rect48" /><rect
         x="44"
         y="40"
         width="4"
         height="4"
         fill="#ffffff"
         id="rect49" /><rect
         x="0"
         y="44"
         width="4"
         height="4"
         fill="#c0cbdc"
         id="rect50" /><rect
         x="4"
         y="44"
         width="4"
         height="4"
         fill="#ffffff"
         id="rect51" /><rect
         x="8"
         y="44"
         width="4"
         height="4"
         fill="#ffffff"
         id="rect52" /><rect
         x="12"
         y="44"
         width="4"
         height="4"
         fill="#ffffff"
         id="rect53" /><rect
         x="36"
         y="44"
         width="4"
         height="4"
         fill="#c0cbdc"
         id="rect54" /><rect
         x="40"
         y="44"
         width="4"
         height="4"
         fill="#c0cbdc"
         id="rect55" /><rect
         x="0"
         y="48"
         width="4"
         height="4"
         fill="#c0cbdc"
         id="rect56" /><rect
         x="4"
         y="48"
         width="4"
         height="4"
         fill="#ffffff"
         id="rect57" /><rect
         x="8"
         y="48"
         width="4"
         height="4"
         fill="#ffffff"
         id="rect58" /><rect
         x="12"
         y="48"
         width="4"
         height="4"
         fill="#ffffff"
         id="rect59" /><rect
         x="4"
         y="52"
         width="4"
         height="4"
         fill="#c0cbdc"
         id="rect60" /><rect
         x="8"
         y="52"
         width="4"
         height="4"
         fill="#c0cbdc"
         id="rect61" /></g><g
       style="shape-rendering:crispEdges"
       id="g31"
       transform="matrix(0.69073785,0,0,0.69073785,36.762092,271.74833)"><rect
         x="8"
         y="0"
         width="4"
         height="4"
         fill="#ffffff"
         id="rect1" /><rect
         x="12"
         y="0"
         width="4"
         height="4"
         fill="#ffffff"
         id="rect2" /><rect
         x="16"
         y="0"
         width="4"
         height="4"
         fill="#ffffff"
         id="rect3" /><rect
         x="20"
         y="0"
         width="4"
         height="4"
         fill="#ffffff"
         id="rect4" /><rect
         x="24"
         y="0"
         width="4"
         height="4"
         fill="#ffffff"
         id="rect5" /><rect
         x="28"
         y="0"
         width="4"
         height="4"
         fill="#ffffff"
         id="rect6" /><rect
         x="32"
         y="0"
         width="4"
         height="4"
         fill="#ffffff"
         id="rect7" /><rect
         x="36"
         y="0"
         width="4"
         height="4"
         fill="#ffffff"
         id="rect8" /><rect
         x="4"
         y="4"
         width="4"
         height="4"
         fill="#ffffff"
         id="rect9" /><rect
         x="8"
         y="4"
         width="4"
         height="4"
         fill="#ffffff"
         id="rect10" /><rect
         x="12"
         y="4"
         width="4"
         height="4"
         fill="#ffffff"
         id="rect11" /><rect
         x="16"
         y="4"
         width="4"
         height="4"
         fill="#ffffff"
         id="rect12" /><rect
         x="20"
         y="4"
         width="4"
         height="4"
         fill="#ffffff"
         id="rect13" /><rect
         x="24"
         y="4"
         width="4"
         height="4"
         fill="#ffffff"
         id="rect14" /><rect
         x="28"
         y="4"
         width="4"
         height="4"
         fill="#ffffff"
         id="rect15" /><rect
         x="32"
         y="4"
         width="4"
         height="4"
         fill="#ffffff"
         id="rect16" /><rect
         x="36"
         y="4"
         width="4"
         height="4"
         fill="#ffffff"
         id="rect17" /><rect
         x="40"
         y="4"
         width="4"
         height="4"
         fill="#ffffff"
         id="rect18" /><rect
         x="0"
         y="8"
         width="4"
         height="4"
         fill="#ffffff"
         id="rect19" /><rect
         x="4"
         y="8"
         width="4"
         height="4"
         fill="#ffffff"
         id="rect20" /><rect
         x="8"
         y="8"
         width="4"
         height="4"
         fill="#ffffff"
         id="rect21" /><rect
         x="36"
         y="8"
         width="4"
         height="4"
         fill="#ffffff"
         id="rect22" /><rect
         x="40"
         y="8"
         width="4"
         height="4"
         fill="#ffffff"
         id="rect23" /><rect
         x="44"
         y="8"
         width="4"
         height="4"
         fill="#ffffff"
         id="rect24" /><rect
         x="0"
         y="12"
         width="4"
         height="4"
         fill="#ffffff"
         id="rect25" /><rect
         x="4"
         y="12"
         width="4"
         height="4"
         fill="#ffffff"
         id="rect26" /><rect
         x="20"
         y="12"
         width="4"
         height="4"
         fill="#ffffff"
         id="rect27" /><rect
         x="40"
         y="12"
         width="4"
         height="4"
         fill="#ffffff"
         id="rect28" /><rect
         x="44"
         y="12"
         width="4"
         height="4"
         fill="#ffffff"
         id="rect29" /><rect
         x="0"
         y="16"
         width="4"
         height="4"
         fill="#ffffff"
         id="rect30" /><rect
         x="4"
         y="16"
         width="4"
         height="4"
         fill="#ffffff"
         id="rect31-3" /><rect
         x="20"
         y="16"
         width="4"
         height="4"
         fill="#ffffff"
         id="rect32-3" /><rect
         x="40"
         y="16"
         width="4"
         height="4"
         fill="#ffffff"
         id="rect33-8" /><rect
         x="44"
         y="16"
         width="4"
         height="4"
         fill="#ffffff"
         id="rect34-6" /><rect
         x="0"
         y="20"
         width="4"
         height="4"
         fill="#ffffff"
         id="rect35-0" /><rect
         x="4"
         y="20"
         width="4"
         height="4"
         fill="#ffffff"
         id="rect36-4" /><rect
         x="20"
         y="20"
         width="4"
         height="4"
         fill="#c0cbdc"
         id="rect37-8" /><rect
         x="40"
         y="20"
         width="4"
         height="4"
         fill="#ffffff"
         id="rect38-8" /><rect
         x="44"
         y="20"
         width="4"
         height="4"
         fill="#ffffff"
         id="rect39-8" /><rect
         x="0"
         y="24"
         width="4"
         height="4"
         fill="#c0cbdc"
         id="rect40-9" /><rect
         x="4"
         y="24"
         width="4"
         height="4"
         fill="#ffffff"
         id="rect41-7" /><rect
         x="24"
         y="24"
         width="4"
         height="4"
         fill="#c0cbdc"
         id="rect42-7" /><rect
         x="28"
         y="24"
         width="4"
         height="4"
         fill="#ffffff"
         id="rect43-6" /><rect
         x="40"
         y="24"
         width="4"
         height="4"
         fill="#ffffff"
         id="rect44-4" /><rect
         x="44"
         y="24"
         width="4"
         height="4"
         fill="#ffffff"
         id="rect45-3" /><rect
         x="0"
         y="28"
         width="4"
         height="4"
         fill="#c0cbdc"
         id="rect46-0" /><rect
         x="4"
         y="28"
         width="4"
         height="4"
         fill="#ffffff"
         id="rect47-3" /><rect
         x="40"
         y="28"
         width="4"
         height="4"
         fill="#ffffff"
         id="rect48-0" /><rect
         x="44"
         y="28"
         width="4"
         height="4"
         fill="#ffffff"
         id="rect49-9" /><rect
         x="0"
         y="32"
         width="4"
         height="4"
         fill="#c0cbdc"
         id="rect50-2" /><rect
         x="4"
         y="32"
         width="4"
         height="4"
         fill="#ffffff"
         id="rect51-5" /><rect
         x="40"
         y="32"
         width="4"
         height="4"
         fill="#ffffff"
         id="rect52-4" /><rect
         x="44"
         y="32"
         width="4"
         height="4"
         fill="#ffffff"
         id="rect53-0" /><rect
         x="0"
         y="36"
         width="4"
         height="4"
         fill="#c0cbdc"
         id="rect54-5" /><rect
         x="4"
         y="36"
         width="4"
         height="4"
         fill="#ffffff"
         id="rect55-9" /><rect
         x="8"
         y="36"
         width="4"
         height="4"
         fill="#ffffff"
         id="rect56-4" /><rect
         x="36"
         y="36"
         width="4"
         height="4"
         fill="#ffffff"
         id="rect57-6" /><rect
         x="40"
         y="36"
         width="4"
         height="4"
         fill="#ffffff"
         id="rect58-9" /><rect
         x="44"
         y="36"
         width="4"
         height="4"
         fill="#ffffff"
         id="rect59-2" /><rect
         x="4"
         y="40"
         width="4"
         height="4"
         fill="#c0cbdc"
         id="rect60-2" /><rect
         x="8"
         y="40"
         width="4"
         height="4"
         fill="#ffffff"
         id="rect61-4" /><rect
         x="12"
         y="40"
         width="4"
         height="4"
         fill="#ffffff"
         id="rect62" /><rect
         x="16"
         y="40"
         width="4"
         height="4"
         fill="#ffffff"
         id="rect63" /><rect
         x="20"
         y="40"
         width="4"
         height="4"
         fill="#ffffff"
         id="rect64" /><rect
         x="24"
         y="40"
         width="4"
         height="4"
         fill="#ffffff"
         id="rect65" /><rect
         x="28"
         y="40"
         width="4"
         height="4"
         fill="#ffffff"
         id="rect66" /><rect
         x="32"
         y="40"
         width="4"
         height="4"
         fill="#ffffff"
         id="rect67" /><rect
         x="36"
         y="40"
         width="4"
         height="4"
         fill="#ffffff"
         id="rect68" /><rect
         x="40"
         y="40"
         width="4"
         height="4"
         fill="#ffffff"
         id="rect69" /><rect
         x="8"
         y="44"
         width="4"
         height="4"
         fill="#c0cbdc"
         id="rect70" /><rect
         x="12"
         y="44"
         width="4"
         height="4"
         fill="#c0cbdc"
         id="rect71" /><rect
         x="16"
         y="44"
         width="4"
         height="4"
         fill="#c0cbdc"
         id="rect72" /><rect
         x="20"
         y="44"
         width="4"
         height="4"
         fill="#c0cbdc"
         id="rect73" /><rect
         x="24"
         y="44"
         width="4"
         height="4"
         fill="#c0cbdc"
         id="rect74" /><rect
         x="28"
         y="44"
         width="4"
         height="4"
         fill="#c0cbdc"
         id="rect75" /><rect
         x="32"
         y="44"
         width="4"
         height="4"
         fill="#c0cbdc"
         id="rect76" /><rect
         x="36"
         y="44"
         width="4"
         height="4"
         fill="#ffffff"
         id="rect77" /></g><text
       xml:space="preserve"
       style="font-size:17.3029px;line-height:1;font-family:'Fusion Pixel 12px Monospaced ja';-inkscape-font-specification:'Fusion Pixel 12px Monospaced ja';fill:#ffffff;fill-opacity:1;stroke-width:1.44191"
       x="83.868019"
       y="281.11649"
       id="text31"><tspan
         id="tspan31"
         x="83.868019"
         y="281.11649"
         style="fill:#a0a0a0;fill-opacity:1;stroke-width:1.44191">Timezone</tspan><tspan
         x="83.868019"
         y="303.2258"
         id="tspan32"
         style="font-size:23.0706px;line-height:1;stroke-width:1.44191">Asia/Shanghai</tspan></text><text
       xml:space="preserve"
       style="font-size:17.3029px;line-height:1;font-family:'Fusion Pixel 12px Monospaced ja';-inkscape-font-specification:'Fusion Pixel 12px Monospaced ja';fill:#ffffff;fill-opacity:1;stroke-width:1.44191"
       x="83.868019"
       y="230.78795"
       id="text31-7"><tspan
         x="83.868019"
         y="230.78795"
         id="tspan32-1"
         style="font-size:17.3029px;line-height:1;fill:#8a8a8a;fill-opacity:1;stroke-width:1.44191">Learning</tspan><tspan
         x="83.868019"
         y="252.89726"
         style="font-size:23.0706px;line-height:1;stroke-width:1.44191"
         id="tspan33"><tspan
   style="fill:#5587f3;fill-opacity:1;stroke-width:1.44191"
   id="tspan35">Nand2Tetris</tspan> Part2</tspan></text><g
       style="shape-rendering:crispEdges"
       id="g32"
       transform="matrix(0.63740261,0,0,0.63740261,35.492528,219.50251)"><rect
         x="4"
         y="0"
         width="4"
         height="4"
         fill="#ffffff"
         id="rect1-7" /><rect
         x="8"
         y="0"
         width="4"
         height="4"
         fill="#ffffff"
         id="rect2-7" /><rect
         x="12"
         y="0"
         width="4"
         height="4"
         fill="#ffffff"
         id="rect3-5" /><rect
         x="16"
         y="0"
         width="4"
         height="4"
         fill="#ffffff"
         id="rect4-4" /><rect
         x="20"
         y="0"
         width="4"
         height="4"
         fill="#ffffff"
         id="rect5-8" /><rect
         x="24"
         y="0"
         width="4"
         height="4"
         fill="#ffffff"
         id="rect6-1" /><rect
         x="28"
         y="0"
         width="4"
         height="4"
         fill="#ffffff"
         id="rect7-2" /><rect
         x="32"
         y="0"
         width="4"
         height="4"
         fill="#ffffff"
         id="rect8-8" /><rect
         x="36"
         y="0"
         width="4"
         height="4"
         fill="#ffffff"
         id="rect9-9" /><rect
         x="40"
         y="0"
         width="4"
         height="4"
         fill="#ffffff"
         id="rect10-3" /><rect
         x="44"
         y="0"
         width="4"
         height="4"
         fill="#ffffff"
         id="rect11-6" /><rect
         x="48"
         y="0"
         width="4"
         height="4"
         fill="#ffffff"
         id="rect12-8" /><rect
         x="0"
         y="4"
         width="4"
         height="4"
         fill="#ffffff"
         id="rect13-0" /><rect
         x="4"
         y="4"
         width="4"
         height="4"
         fill="#ffffff"
         id="rect14-2" /><rect
         x="8"
         y="4"
         width="4"
         height="4"
         fill="#ffffff"
         id="rect15-10" /><rect
         x="12"
         y="4"
         width="4"
         height="4"
         fill="#ffffff"
         id="rect16-5" /><rect
         x="16"
         y="4"
         width="4"
         height="4"
         fill="#ffffff"
         id="rect17-1" /><rect
         x="20"
         y="4"
         width="4"
         height="4"
         fill="#ffffff"
         id="rect18-1" /><rect
         x="24"
         y="4"
         width="4"
         height="4"
         fill="#ffffff"
         id="rect19-0" /><rect
         x="28"
         y="4"
         width="4"
         height="4"
         fill="#ffffff"
         id="rect20-8" /><rect
         x="32"
         y="4"
         width="4"
         height="4"
         fill="#ffffff"
         id="rect21-5" /><rect
         x="36"
         y="4"
         width="4"
         height="4"
         fill="#ffffff"
         id="rect22-0" /><rect
         x="40"
         y="4"
         width="4"
         height="4"
         fill="#ffffff"
         id="rect23-6" /><rect
         x="44"
         y="4"
         width="4"
         height="4"
         fill="#ffffff"
         id="rect24-4" /><rect
         x="48"
         y="4"
         width="4"
         height="4"
         fill="#ffffff"
         id="rect25-6" /><rect
         x="52"
         y="4"
         width="4"
         height="4"
         fill="#ffffff"
         id="rect26-2" /><rect
         x="0"
         y="8"
         width="4"
         height="4"
         fill="#ffffff"
         id="rect27-5" /><rect
         x="4"
         y="8"
         width="4"
         height="4"
         fill="#ffffff"
         id="rect28-8" /><rect
         x="8"
         y="8"
         width="4"
         height="4"
         fill="#ffffff"
         id="rect29-6" /><rect
         x="12"
         y="8"
         width="4"
         height="4"
         fill="#ffffff"
         id="rect30-2" /><rect
         x="16"
         y="8"
         width="4"
         height="4"
         fill="#ffffff"
         id="rect31-8" /><rect
         x="32"
         y="8"
         width="4"
         height="4"
         fill="#ffffff"
         id="rect32-4" /><rect
         x="36"
         y="8"
         width="4"
         height="4"
         fill="#ffffff"
         id="rect33-7" /><rect
         x="40"
         y="8"
         width="4"
         height="4"
         fill="#ffffff"
         id="rect34-2" /><rect
         x="44"
         y="8"
         width="4"
         height="4"
         fill="#ffffff"
         id="rect35-4" /><rect
         x="48"
         y="8"
         width="4"
         height="4"
         fill="#ffffff"
         id="rect36-0" /><rect
         x="52"
         y="8"
         width="4"
         height="4"
         fill="#ffffff"
         id="rect37-6" /><rect
         x="0"
         y="12"
         width="4"
         height="4"
         fill="#ffffff"
         id="rect38-2" /><rect
         x="4"
         y="12"
         width="4"
         height="4"
         fill="#ffffff"
         id="rect39-9" /><rect
         x="8"
         y="12"
         width="4"
         height="4"
         fill="#ffffff"
         id="rect40-90" /><rect
         x="12"
         y="12"
         width="4"
         height="4"
         fill="#ffffff"
         id="rect41-8" /><rect
         x="16"
         y="12"
         width="4"
         height="4"
         fill="#ffffff"
         id="rect42-1" /><rect
         x="20"
         y="12"
         width="4"
         height="4"
         fill="#ffffff"
         id="rect43-3" /><rect
         x="24"
         y="12"
         width="4"
         height="4"
         fill="#ffffff"
         id="rect44-1" /><rect
         x="28"
         y="12"
         width="4"
         height="4"
         fill="#ffffff"
         id="rect45-1" /><rect
         x="36"
         y="12"
         width="4"
         height="4"
         fill="#ffffff"
         id="rect46-03" /><rect
         x="40"
         y="12"
         width="4"
         height="4"
         fill="#ffffff"
         id="rect47-4" /><rect
         x="44"
         y="12"
         width="4"
         height="4"
         fill="#ffffff"
         id="rect48-03" /><rect
         x="48"
         y="12"
         width="4"
         height="4"
         fill="#ffffff"
         id="rect49-91" /><rect
         x="52"
         y="12"
         width="4"
         height="4"
         fill="#ffffff"
         id="rect50-9" /><rect
         x="0"
         y="16"
         width="4"
         height="4"
         fill="#ffffff"
         id="rect51-6" /><rect
         x="4"
         y="16"
         width="4"
         height="4"
         fill="#ffffff"
         id="rect52-9" /><rect
         x="8"
         y="16"
         width="4"
         height="4"
         fill="#ffffff"
         id="rect53-3" /><rect
         x="12"
         y="16"
         width="4"
         height="4"
         fill="#ffffff"
         id="rect54-3" /><rect
         x="16"
         y="16"
         width="4"
         height="4"
         fill="#ffffff"
         id="rect55-8" /><rect
         x="20"
         y="16"
         width="4"
         height="4"
         fill="#ffffff"
         id="rect56-0" /><rect
         x="24"
         y="16"
         width="4"
         height="4"
         fill="#ffffff"
         id="rect57-5" /><rect
         x="28"
         y="16"
         width="4"
         height="4"
         fill="#ffffff"
         id="rect58-6" /><rect
         x="36"
         y="16"
         width="4"
         height="4"
         fill="#ffffff"
         id="rect59-6" /><rect
         x="40"
         y="16"
         width="4"
         height="4"
         fill="#ffffff"
         id="rect60-4" /><rect
         x="44"
         y="16"
         width="4"
         height="4"
         fill="#ffffff"
         id="rect61-0" /><rect
         x="48"
         y="16"
         width="4"
         height="4"
         fill="#ffffff"
         id="rect62-0" /><rect
         x="52"
         y="16"
         width="4"
         height="4"
         fill="#ffffff"
         id="rect63-4" /><rect
         x="0"
         y="20"
         width="4"
         height="4"
         fill="#c0cbdc"
         id="rect64-6" /><rect
         x="4"
         y="20"
         width="4"
         height="4"
         fill="#ffffff"
         id="rect65-2" /><rect
         x="8"
         y="20"
         width="4"
         height="4"
         fill="#ffffff"
         id="rect66-6" /><rect
         x="12"
         y="20"
         width="4"
         height="4"
         fill="#ffffff"
         id="rect67-7" /><rect
         x="16"
         y="20"
         width="4"
         height="4"
         fill="#ffffff"
         id="rect68-5" /><rect
         x="20"
         y="20"
         width="4"
         height="4"
         fill="#ffffff"
         id="rect69-6" /><rect
         x="32"
         y="20"
         width="4"
         height="4"
         fill="#ffffff"
         id="rect70-9" /><rect
         x="36"
         y="20"
         width="4"
         height="4"
         fill="#ffffff"
         id="rect71-8" /><rect
         x="40"
         y="20"
         width="4"
         height="4"
         fill="#ffffff"
         id="rect72-7" /><rect
         x="44"
         y="20"
         width="4"
         height="4"
         fill="#ffffff"
         id="rect73-2" /><rect
         x="48"
         y="20"
         width="4"
         height="4"
         fill="#ffffff"
         id="rect74-8" /><rect
         x="52"
         y="20"
         width="4"
         height="4"
         fill="#ffffff"
         id="rect75-2" /><rect
         x="0"
         y="24"
         width="4"
         height="4"
         fill="#c0cbdc"
         id="rect76-9" /><rect
         x="4"
         y="24"
         width="4"
         height="4"
         fill="#ffffff"
         id="rect77-9" /><rect
         x="8"
         y="24"
         width="4"
         height="4"
         fill="#ffffff"
         id="rect78" /><rect
         x="12"
         y="24"
         width="4"
         height="4"
         fill="#ffffff"
         id="rect79" /><rect
         x="16"
         y="24"
         width="4"
         height="4"
         fill="#ffffff"
         id="rect80" /><rect
         x="20"
         y="24"
         width="4"
         height="4"
         fill="#ffffff"
         id="rect81" /><rect
         x="24"
         y="24"
         width="4"
         height="4"
         fill="#ffffff"
         id="rect82" /><rect
         x="28"
         y="24"
         width="4"
         height="4"
         fill="#ffffff"
         id="rect83" /><rect
         x="32"
         y="24"
         width="4"
         height="4"
         fill="#ffffff"
         id="rect84" /><rect
         x="36"
         y="24"
         width="4"
         height="4"
         fill="#ffffff"
         id="rect85" /><rect
         x="40"
         y="24"
         width="4"
         height="4"
         fill="#ffffff"
         id="rect86" /><rect
         x="44"
         y="24"
         width="4"
         height="4"
         fill="#ffffff"
         id="rect87" /><rect
         x="48"
         y="24"
         width="4"
         height="4"
         fill="#ffffff"
         id="rect88" /><rect
         x="52"
         y="24"
         width="4"
         height="4"
         fill="#ffffff"
         id="rect89" /><rect
         x="0"
         y="28"
         width="4"
         height="4"
         fill="#c0cbdc"
         id="rect90" /><rect
         x="4"
         y="28"
         width="4"
         height="4"
         fill="#ffffff"
         id="rect91" /><rect
         x="8"
         y="28"
         width="4"
         height="4"
         fill="#ffffff"
         id="rect92" /><rect
         x="12"
         y="28"
         width="4"
         height="4"
         fill="#ffffff"
         id="rect93" /><rect
         x="16"
         y="28"
         width="4"
         height="4"
         fill="#ffffff"
         id="rect94" /><rect
         x="20"
         y="28"
         width="4"
         height="4"
         fill="#ffffff"
         id="rect95" /><rect
         x="32"
         y="28"
         width="4"
         height="4"
         fill="#ffffff"
         id="rect96" /><rect
         x="36"
         y="28"
         width="4"
         height="4"
         fill="#ffffff"
         id="rect97" /><rect
         x="40"
         y="28"
         width="4"
         height="4"
         fill="#ffffff"
         id="rect98" /><rect
         x="44"
         y="28"
         width="4"
         height="4"
         fill="#ffffff"
         id="rect99" /><rect
         x="48"
         y="28"
         width="4"
         height="4"
         fill="#ffffff"
         id="rect100" /><rect
         x="52"
         y="28"
         width="4"
         height="4"
         fill="#ffffff"
         id="rect101" /><rect
         x="0"
         y="32"
         width="4"
         height="4"
         fill="#c0cbdc"
         id="rect102" /><rect
         x="4"
         y="32"
         width="4"
         height="4"
         fill="#ffffff"
         id="rect103" /><rect
         x="8"
         y="32"
         width="4"
         height="4"
         fill="#ffffff"
         id="rect104" /><rect
         x="12"
         y="32"
         width="4"
         height="4"
         fill="#ffffff"
         id="rect105" /><rect
         x="16"
         y="32"
         width="4"
         height="4"
         fill="#ffffff"
         id="rect106" /><rect
         x="20"
         y="32"
         width="4"
         height="4"
         fill="#ffffff"
         id="rect107" /><rect
         x="24"
         y="32"
         width="4"
         height="4"
         fill="#ffffff"
         id="rect108" /><rect
         x="28"
         y="32"
         width="4"
         height="4"
         fill="#ffffff"
         id="rect109" /><rect
         x="32"
         y="32"
         width="4"
         height="4"
         fill="#ffffff"
         id="rect110" /><rect
         x="36"
         y="32"
         width="4"
         height="4"
         fill="#ffffff"
         id="rect111" /><rect
         x="40"
         y="32"
         width="4"
         height="4"
         fill="#ffffff"
         id="rect112" /><rect
         x="44"
         y="32"
         width="4"
         height="4"
         fill="#ffffff"
         id="rect113" /><rect
         x="48"
         y="32"
         width="4"
         height="4"
         fill="#ffffff"
         id="rect114" /><rect
         x="52"
         y="32"
         width="4"
         height="4"
         fill="#ffffff"
         id="rect115" /><rect
         x="0"
         y="36"
         width="4"
         height="4"
         fill="#c0cbdc"
         id="rect116" /><rect
         x="4"
         y="36"
         width="4"
         height="4"
         fill="#ffffff"
         id="rect117" /><rect
         x="8"
         y="36"
         width="4"
         height="4"
         fill="#ffffff"
         id="rect118" /><rect
         x="12"
         y="36"
         width="4"
         height="4"
         fill="#c0cbdc"
         id="rect119" /><rect
         x="16"
         y="36"
         width="4"
         height="4"
         fill="#c0cbdc"
         id="rect120" /><rect
         x="20"
         y="36"
         width="4"
         height="4"
         fill="#c0cbdc"
         id="rect121" /><rect
         x="24"
         y="36"
         width="4"
         height="4"
         fill="#c0cbdc"
         id="rect122" /><rect
         x="28"
         y="36"
         width="4"
         height="4"
         fill="#c0cbdc"
         id="rect123" /><rect
         x="32"
         y="36"
         width="4"
         height="4"
         fill="#c0cbdc"
         id="rect124" /><rect
         x="36"
         y="36"
         width="4"
         height="4"
         fill="#c0cbdc"
         id="rect125" /><rect
         x="40"
         y="36"
         width="4"
         height="4"
         fill="#c0cbdc"
         id="rect126" /><rect
         x="44"
         y="36"
         width="4"
         height="4"
         fill="#c0cbdc"
         id="rect127" /><rect
         x="48"
         y="36"
         width="4"
         height="4"
         fill="#c0cbdc"
         id="rect128" /><rect
         x="0"
         y="40"
         width="4"
         height="4"
         fill="#c0cbdc"
         id="rect129" /><rect
         x="4"
         y="40"
         width="4"
         height="4"
         fill="#ffffff"
         id="rect130" /><rect
         x="8"
         y="40"
         width="4"
         height="4"
         fill="#c0cbdc"
         id="rect131" /><rect
         x="0"
         y="44"
         width="4"
         height="4"
         fill="#c0cbdc"
         id="rect132" /><rect
         x="4"
         y="44"
         width="4"
         height="4"
         fill="#c0cbdc"
         id="rect133" /><rect
         x="0"
         y="48"
         width="4"
         height="4"
         fill="#c0cbdc"
         id="rect134" /></g></g></svg>
